<?xml version="1.0" encoding="UTF-8" standalone="no"?>
<svg
   width="48"
   height="48"
   viewBox="0 0 12.7 12.7"
   version="1.1"
   id="svg1"
   xml:space="preserve"
   xmlns="http://www.w3.org/2000/svg">
    <defs
     id="defs1" /><g
     id="layer1"><path
       style="fill:#deb419;stroke:none;stroke-width:0.234666"
       d="M 5.2139909,4.7651112 C 5.1871336,4.7333172 5.1667608,4.6964428 5.1391259,4.6648589 5.0804074,4.5977492 5.0103922,4.541541 4.9352394,4.4939532 4.8205933,4.421357 4.6947087,4.367765 4.5660159,4.3258229 4.4798435,4.2977385 4.3894777,4.2794812 4.2994905,4.2692836 3.6440235,4.195005 3.0143327,4.5942739 2.6730119,5.1343351 2.5495476,5.3296887 2.4725912,5.5416249 2.4019747,5.7603033 2.3345972,5.9689515 2.2727985,6.1794113 2.2000048,6.3862714 2.1530142,6.5198057 2.1034597,6.6541031 2.0382054,6.7799467 1.9006399,7.0452407 1.6670311,7.2503302 1.5508028,7.5281745 c -0.02662,0.063637 -0.034034,0.1302599 -0.043718,0.1980599 -0.015205,0.1064655 -0.02583,0.2132164 -0.035115,0.3203198 -0.0086,0.099222 -0.011338,0.1987601 -0.011338,0.298313 0,0.047199 -0.00825,0.093184 0.022669,0.1320403 0.087625,0.1101254 0.235338,0.159768 0.3734519,0.1482656 0.029422,-0.00245 0.058746,-0.00411 0.088025,-0.00822 0.010241,-0.00143 0.025006,-0.00185 0.030727,-0.012081 0.00878,-0.015685 0.00549,-0.044355 0.0061,-0.061942 0.00155,-0.044026 0.0035,-0.087997 0.0049,-0.1320403 0.00332,-0.1043723 0.00593,-0.2091591 0.018658,-0.312984 0.00673,-0.054897 0.013326,-0.1134219 0.037029,-0.1638275 C 2.1123459,7.7848826 2.2013087,7.6408017 2.3028851,7.5110573 2.3616945,7.4359386 2.4282975,7.3677289 2.4879854,7.2934348 2.5488501,7.2176766 2.6025577,7.1362586 2.6497939,7.0513612 2.8004693,6.7805554 2.8904396,6.4826589 3.0035675,6.1955454 3.0931408,5.9682135 3.2017321,5.747562 3.3431031,5.5475706 3.4986866,5.3274726 3.7115272,5.1100381 3.9913972,5.0719742 4.0946157,5.0579362 4.20037,5.0710121 4.301936,5.0913302 c 0.1133052,0.022662 0.2319166,0.057234 0.3301004,0.1197897 0.051196,0.032618 0.102461,0.0747 0.1238545,0.1335008 0.00665,0.018295 0.014568,0.049412 0.00401,0.067595 -0.00861,0.014836 -0.03035,0.02218 -0.04473,0.029989 -0.034715,0.018846 -0.068836,0.038576 -0.1026981,0.05891 C 4.504595,5.5658937 4.4017963,5.6400667 4.3068253,5.7226466 4.1263939,5.8795369 3.9729114,6.0695266 3.8698957,6.286019 3.8137517,6.404007 3.7742007,6.5290513 3.7411398,6.6552423 3.5654839,7.3256883 3.6264495,8.0505058 3.9044793,8.6847486 4.0268438,8.9638875 4.2024156,9.211277 4.3617275,9.4696543 c 0.1184676,0.192134 0.2286843,0.391323 0.3174419,0.5990717 0.029217,0.06839 0.05577,0.13778 0.080665,0.207841 0.00822,0.02314 0.01336,0.06819 0.03151,0.08512 0.019762,0.01844 0.074874,0.01089 0.099881,0.01009 0.1132025,-0.0036 0.2303075,-0.06122 0.2989656,-0.151443 C 5.257749,10.131554 5.270911,10.01811 5.222995,9.9171296 5.204884,9.8789596 5.171775,9.8495396 5.154403,9.8119863 5.130429,9.7601663 5.1189,9.6989773 5.107879,9.6432683 5.042468,9.3126383 5.109969,8.9743899 5.154298,8.645632 5.18812,8.3947566 5.19127,8.1426043 5.19697,7.8900689 5.20164,7.6831614 5.20666,7.4760272 5.20666,7.2689909 H 5.2091 c 0.00249,0.039198 0.012382,0.078741 0.019342,0.1173687 0.013393,0.074306 0.02747,0.1484758 0.042277,0.2225121 0.044927,0.2246314 0.095056,0.4485247 0.1537611,0.6699816 0.1336558,0.5041982 0.2968954,1.0013285 0.5235811,1.472003 0.1478907,0.3070717 0.3239453,0.6036197 0.5461624,0.8631527 0.086702,0.10126 0.1723433,0.201744 0.289578,0.268812 0.1058449,0.06055 0.2272647,0.08507 0.3349908,0.142888 0.060334,0.03239 0.1167067,0.07126 0.1760535,0.105279 0.02742,0.01572 0.060176,0.03701 0.092916,0.03744 0.02637,3.51e-4 0.04398,-0.02918 0.061135,-0.04557 0.031252,-0.02987 0.068711,-0.0594 0.1124745,-0.06691 0.058153,-0.01003 0.116676,0.01837 0.1711632,0.03446 0.015974,0.0047 0.051006,0.02088 0.06541,0.0078 0.015531,-0.01406 0.023584,-0.04052 0.033157,-0.05878 0.024058,-0.0459 0.047288,-0.09222 0.068816,-0.139376 0.077957,-0.170697 0.1462216,-0.344186 0.1949551,-0.525666 0.032488,-0.12098 0.05511,-0.246356 0.060436,-0.371668 0.0045,-0.1058777 -0.00644,-0.2127677 -0.018234,-0.3178757 C 8.1208845,9.5405253 8.0989183,9.3971638 8.0719907,9.2544785 7.9562443,8.6411554 7.7501182,8.0488347 7.6356095,7.4352584 7.5989663,7.2389128 7.5782299,7.040689 7.5232955,6.8484132 7.5046325,6.7830869 7.4849448,6.7175085 7.4739697,6.6503533 c -0.00493,-0.030156 -0.011138,-0.065895 9.6e-5,-0.095328 0.019149,-0.050188 0.075399,-0.026293 0.1093113,-0.00753 0.047863,0.02649 0.08911,0.062946 0.1369305,0.089474 0.067408,0.037394 0.1410157,0.05994 0.2151767,0.079601 0.1473937,0.039076 0.3020596,0.061246 0.4303531,0.1499169 0.051045,0.03528 0.091771,0.081909 0.1346429,0.1261863 0.048375,0.04996 0.098566,0.098347 0.1460445,0.1491564 0.024875,0.02662 0.050813,0.052076 0.076152,0.078247 0.013198,0.01363 0.025253,0.03111 0.041733,0.04098 0.030114,0.018037 0.088109,0.010371 0.1222517,0.010371 0.1258758,0 0.27712,-0.025959 0.3581221,-0.1344853 0.018404,-0.024657 -0.023166,-0.059757 -0.037909,-0.078247 C 9.1501301,6.9875457 9.091135,6.9182185 9.0327556,6.8484134 8.8866836,6.6737539 8.7359727,6.5024541 8.6023679,6.3178076 8.5127592,6.1939657 8.4347005,6.0651582 8.3609473,5.931468 c 0.2605463,0.093159 0.5155563,0.2070405 0.7628986,0.3307116 0.490772,0.2453861 0.9550171,0.5415805 1.3766411,0.8933111 0.158677,0.1323727 0.18185,0.3709612 0.235436,0.5585194 0.01038,0.036301 0.02392,0.071489 0.03477,0.1075886 0.0079,0.026226 0.0096,0.051984 0.03125,0.07165 0.03134,0.028356 0.07936,0.028848 0.119104,0.025439 0.08536,-0.00732 0.17405,-0.045504 0.24452,-0.092858 0.02741,-0.018419 0.06146,-0.042264 0.0723,-0.075141 0.0079,-0.023928 -0.005,-0.0546 -0.01003,-0.078247 -0.01326,-0.061296 -0.02739,-0.1224884 -0.04238,-0.1833889 C 11.12041,7.2249593 11.029868,6.9619705 10.867465,6.7408252 10.754509,6.5870135 10.626247,6.4417656 10.500639,6.2982462 10.074746,5.8116252 9.5693329,5.3706375 8.9355659,5.1895283 8.6569679,5.1099141 8.3485835,5.0760855 8.067524,5.1636789 8.0568373,5.0813281 8.0456413,5.0049966 7.9985949,4.9338313 7.8355805,4.6872403 7.4649212,4.7074322 7.2410504,4.8494423 7.1928695,4.8800055 7.1523449,4.9189612 7.1139006,4.9607283 7.1803899,4.4843297 7.345919,4.0257769 7.5309179,3.5840874 7.6474477,3.305869 7.7697615,3.0295568 7.895026,2.7551685 7.9884805,2.5504587 8.1001502,2.352408 8.1735029,2.1389812 8.2076902,2.0395093 8.2469569,1.9447636 8.2065023,1.8406681 8.1260616,1.6336845 7.8928882,1.5463997 7.6885199,1.5346662 7.5326587,1.5257176 7.3688868,1.535673 7.2165986,1.570925 6.9970846,1.6217397 6.7875222,1.7243863 6.6028563,1.8523061 6.0038114,2.2672693 5.614032,2.9546305 5.4176619,3.6452171 5.361309,3.8433961 5.3202448,4.0458644 5.2875231,4.2491787 5.2690617,4.3638831 5.2524668,4.4788501 5.2366684,4.5939501 5.228893,4.6506286 5.2173858,4.7079903 5.2139878,4.7651133 m 1.7752065,0.8876033 c 0.044968,-0.025025 0.1581512,-0.013245 0.1369308,-0.088026 0.1285124,-0.082117 0.2762069,-0.1412101 0.4279078,-0.1602312 0.076739,-0.00962 0.1530655,-0.00537 0.2298476,8.448e-4 0.1636051,0.013238 0.3248961,0.049608 0.4817022,0.097152 0.4464348,0.1353599 0.8575757,0.3622502 1.2494912,0.6112881 0.24975,0.1587005 0.4959251,0.3231718 0.7384471,0.4927184 0.132781,0.092827 0.272118,0.1809307 0.398566,0.2822939 0.04,0.032068 0.07692,0.068864 0.114923,0.1032905 0.04854,0.043968 0.104938,0.085503 0.147573,0.1352817 0.01947,0.022735 0.03486,0.050006 0.05017,0.075644 0.04299,0.072003 0.07804,0.1614218 0.07011,0.2469639 -0.0028,0.030638 -0.0063,0.067505 -0.03354,0.087002 -0.04805,0.034296 -0.120472,-0.00795 -0.16339,-0.032537 -0.01607,-0.0092 -0.03688,-0.018755 -0.04849,-0.033621 -0.0087,-0.011185 -0.01156,-0.027169 -0.01591,-0.040406 -0.0086,-0.026106 -0.01701,-0.052357 -0.0263,-0.078247 -0.02946,-0.082078 -0.06213,-0.1628828 -0.103818,-0.2396294 -0.02345,-0.043173 -0.04358,-0.096762 -0.0761,-0.1338758 -0.03472,-0.039626 -0.08794,-0.071213 -0.130409,-0.1021971 C 10.354522,6.8163195 10.271658,6.7571311 10.1875,6.699514 9.8464269,6.4660043 9.4847389,6.2633187 9.1189531,6.0716069 8.9080951,5.9610943 8.6926725,5.8588224 8.4758686,5.7605481 8.1372344,5.6070492 7.7824619,5.4595805 7.4048762,5.5498362 7.3161199,5.5710524 7.231417,5.6067495 7.1505767,5.6485493 7.0248989,5.713533 6.9023851,5.8007708 6.7987142,5.8969833 6.6765647,6.010345 6.6094407,6.1797765 6.5513276,6.3324833 c -0.019806,0.052044 -0.03844,0.1045517 -0.058511,0.156492 -0.00907,0.023476 -0.016214,0.052291 -0.036674,0.068465 C 6.4514498,6.480448 6.4257726,6.4003661 6.4015336,6.327593 6.3183067,6.0777218 6.1567183,5.8354218 5.8937499,5.7539235 5.8007582,5.7251035 5.7076829,5.7326932 5.6125532,5.7230333 5.5087448,5.7124971 5.4009829,5.6810654 5.3093499,5.6307145 v -0.00244 l 0.031788,0.00734 c 0,-0.1475452 -0.00453,-0.2950118 1.577e-4,-0.442579 C 5.3527758,4.8317362 5.3845119,4.4693267 5.4575552,4.114704 5.5961786,3.4416783 5.9144776,2.8053558 6.4023489,2.3174846 6.6928792,2.0269543 7.0419627,1.7247963 7.4733415,1.7109209 c 0.1650084,-0.00531 0.3266177,0.027109 0.4408584,0.1566496 0.023541,0.026695 0.046211,0.055004 0.060205,0.088026 0.054259,0.1280309 0.0015,0.2701257 -0.046751,0.3912301 C 7.8334797,2.583197 7.7287599,2.814635 7.623369,3.0461507 7.4657595,3.3923782 7.3053583,3.7380398 7.1864563,4.1000266 7.1027802,4.354771 7.0434158,4.6176514 7.0023801,4.8824869 c -0.015486,0.099934 -0.026764,0.200306 -0.038182,0.3007583 -0.010312,0.090748 -0.024671,0.1822339 -0.018504,0.273861 0.00453,0.067265 0.02203,0.1320557 0.043501,0.195615 m -2.01239,3.9489791 h -0.00244 c -0.028609,-0.0543 -0.055068,-0.109724 -0.084043,-0.163828 -0.015535,-0.02901 -0.040688,-0.062755 -0.046715,-0.095363 -0.00678,-0.036709 6.571e-4,-0.080308 0.0031,-0.1173687 0.00412,-0.062747 0.00671,-0.1255761 0.012078,-0.1882793 C 4.8725461,8.875942 4.8893721,8.715412 4.9094961,8.555159 4.9197021,8.473854 4.9359711,8.3923582 4.9420771,8.3106403 4.9587171,8.0878457 4.9107431,7.8659406 4.9157731,7.6431042 4.9189131,7.5041499 4.9406831,7.3636006 4.9519011,7.224977 4.9788641,6.8917355 5.0140151,6.5464397 5.1504783,6.2371211 5.2216583,6.0757763 5.3353965,5.9373073 5.436502,5.7945421 c 0.031576,0.013747 0.056746,0.046696 0.069131,0.078247 0.00464,0.011822 0.010194,0.026733 0.00466,0.039123 -0.012102,0.027091 -0.045825,0.05084 -0.065241,0.073356 -0.040003,0.046387 -0.075454,0.09658 -0.106817,0.1491566 -0.098524,0.1651696 -0.1491433,0.3526319 -0.1833773,0.5403863 -0.027139,0.148846 -0.04167,0.2997581 -0.059346,0.4499147 -0.019292,0.1638728 -0.040532,0.3264916 -0.047549,0.4914827 -0.012754,0.2998782 -1.336e-4,0.6002525 -0.02273,0.8998293 -0.027099,0.3592706 -0.1460696,0.727788 -0.048424,1.0856636 z"
       id="path2" /><path
       style="fill:#000000"
       id="path1" /></g></svg>
